# xmcd
#
# Track frame offsets:
#	150
#	18580
#	34657
#	52057
#	71602
#	87855
#	104452
#	122912
#	135795
#	150597
#	165147
#	182392
#	199865
#	215175
#	234835
#
# Disc length: 3349 seconds
#
# Revision: 0
# Processed by: cddbd v1.5.2PL0 Copyright (c) Steve Scherf et al.
# Submitted via: EasyCDDAExtractor 15.3.0.1
#
DISCID=c00d130f
DTITLE=Daniela Romo - 30 Exitos Insuperables - CD 1
DYEAR=2003
DGENRE=Latin
TTITLE0=Quiero Amanecer Con Alguien
TTITLE1=Gitana
TTITLE2=Explorame
TTITLE3=Duele
TTITLE4=De Mi Enamorate
TTITLE5=La Ocasion Para Amarnos
TTITLE6=Para Que Te Quedes Conmigo
TTITLE7=Mujer De Todos, Mujer De Nadie
TTITLE8=Ay, Ay, Ay
TTITLE9=Nadie Entiende
TTITLE10=Yo No Te Pido La Luna
TTITLE11=Es Mejor Perdonar
TTITLE12=Amor Prohibido
TTITLE13=Todo, Todo, Todo
TTITLE14=En Todo Momento Solo Tuya
EXTD=
EXTT0=
EXTT1=
EXTT2=
EXTT3=
EXTT4=
EXTT5=
EXTT6=
EXTT7=
EXTT8=
EXTT9=
EXTT10=
EXTT11=
EXTT12=
EXTT13=
EXTT14=
PLAYORDER=
